# xmcd
#
# Track frame offsets:
#	150
#	17105
#	36937
#	58460
#	81662
#	101817
#	128501
#	155904
#	181561
#	204506
#	230795
#
# Disc length: 3298 seconds
#
# Revision: 2
# Processed by: cddbd v1.5.1PL2 Copyright (c) Steve Scherf et al.
# Submitted via: EasyCDDAExtractor 8.2.1.1
#
DISCID=9c0ce00b
DTITLE=BIG BUB - Timeless
DYEAR=1997
DGENRE=R&B
TTITLE0=Need Your Love (feat. Queen Latifah and Heavy D)
TTITLE1=Everybody
TTITLE2=Call Me
TTITLE3=Bring It On
TTITLE4=My Way
TTITLE5=Zoom
TTITLE6=Settle Down
TTITLE7=No One
TTITLE8=Strung
TTITLE9=Take It Off
TTITLE10=Need Your Love (Remix)
EXTD=
EXTT0=
EXTT1=
EXTT2=
EXTT3=
EXTT4=
EXTT5=
EXTT6=
EXTT7=
EXTT8=
EXTT9=
EXTT10=\n
PLAYORDER=
